<svg id="visual" viewBox="0 0 800 300" width="800" height="300" xmlns="http://www.w3.org/2000/svg" xmlns:xlink="http://www.w3.org/1999/xlink" version="1.1"><path d="M0 94L73 94L73 130L145 130L145 58L218 58L218 100L291 100L291 100L364 100L364 76L436 76L436 94L509 94L509 91L582 91L582 58L655 58L655 136L727 136L727 94L800 94L800 52L800 0L800 0L727 0L727 0L655 0L655 0L582 0L582 0L509 0L509 0L436 0L436 0L364 0L364 0L291 0L291 0L218 0L218 0L145 0L145 0L73 0L73 0L0 0Z" fill="#d5ecf1"></path><path d="M0 130L73 130L73 169L145 169L145 94L218 94L218 145L291 145L291 142L364 142L364 130L436 130L436 115L509 115L509 139L582 139L582 91L655 91L655 187L727 187L727 157L800 157L800 109L800 50L800 92L727 92L727 134L655 134L655 56L582 56L582 89L509 89L509 92L436 92L436 74L364 74L364 98L291 98L291 98L218 98L218 56L145 56L145 128L73 128L73 92L0 92Z" fill="#cde3eb"></path><path d="M0 169L73 169L73 205L145 205L145 136L218 136L218 175L291 175L291 187L364 187L364 157L436 157L436 166L509 166L509 181L582 181L582 124L655 124L655 208L727 208L727 175L800 175L800 133L800 107L800 155L727 155L727 185L655 185L655 89L582 89L582 137L509 137L509 113L436 113L436 128L364 128L364 140L291 140L291 143L218 143L218 92L145 92L145 167L73 167L73 128L0 128Z" fill="#c5dae5"></path><path d="M0 259L73 259L73 253L145 253L145 262L218 262L218 238L291 238L291 262L364 262L364 232L436 232L436 226L509 226L509 268L582 268L582 232L655 232L655 250L727 250L727 235L800 235L800 223L800 131L800 173L727 173L727 206L655 206L655 122L582 122L582 179L509 179L509 164L436 164L436 155L364 155L364 185L291 185L291 173L218 173L218 134L145 134L145 203L73 203L73 167L0 167Z" fill="#bfd1df"></path><path d="M0 301L73 301L73 301L145 301L145 301L218 301L218 301L291 301L291 301L364 301L364 301L436 301L436 301L509 301L509 301L582 301L582 301L655 301L655 301L727 301L727 301L800 301L800 301L800 221L800 233L727 233L727 248L655 248L655 230L582 230L582 266L509 266L509 224L436 224L436 230L364 230L364 260L291 260L291 236L218 236L218 260L145 260L145 251L73 251L73 257L0 257Z" fill="#bac7d8"></path></svg>